<svg xmlns="http://www.w3.org/2000/svg" width="201" height="57" viewBox="0 0 201 57" fill="none">
<ellipse cx="185.871" cy="14.6288" rx="14.342" ry="14.6288" fill="white"/>
<ellipse cx="150.59" cy="15.4894" rx="12.3341" ry="12.6209" fill="white"/>
<ellipse cx="119.325" cy="17.4973" rx="11.4736" ry="11.7604" fill="white"/>
<path d="M89.7803 1.14731C95.008 1.14737 99.2461 5.5141 99.2461 10.9002C99.2459 16.2862 95.0079 20.6521 89.7803 20.6522C84.5526 20.6522 80.3147 16.2862 80.3145 10.9002C80.3145 5.51406 84.5525 1.14731 89.7803 1.14731Z" fill="#E75234"/>
<path d="M89.7803 1.14731C95.008 1.14737 99.2461 5.5141 99.2461 10.9002C99.2459 16.2862 95.0079 20.6521 89.7803 20.6522C84.5526 20.6522 80.3147 16.2862 80.3145 10.9002C80.3145 5.51406 84.5525 1.14731 89.7803 1.14731Z"/>
<ellipse cx="63.9648" cy="19.5052" rx="8.31835" ry="8.60519" fill="white"/>
<ellipse cx="40.445" cy="22.3733" rx="6.59731" ry="6.88415" fill="white"/>
<ellipse cx="21.2262" cy="23.2339" rx="4.58943" ry="4.87627" fill="white"/>
<ellipse cx="3.44207" cy="25.5289" rx="3.44207" ry="3.72891" fill="white"/>
<path d="M19.5428 52.1598C18.3695 52.1598 17.3455 51.9358 16.4708 51.4878C15.6068 51.0292 14.9401 50.3892 14.4708 49.5678C14.0121 48.7358 13.7828 47.7598 13.7828 46.6398C13.7828 45.5198 14.0121 44.5492 14.4708 43.7278C14.9401 42.8958 15.6068 42.2558 16.4708 41.8078C17.3455 41.3492 18.3695 41.1198 19.5428 41.1198C20.7588 41.1198 21.7988 41.3492 22.6628 41.8078C23.5268 42.2558 24.1935 42.8958 24.6628 43.7278C25.1321 44.5492 25.3668 45.5198 25.3668 46.6398C25.3668 47.7598 25.1321 48.7358 24.6628 49.5678C24.1935 50.3892 23.5268 51.0292 22.6628 51.4878C21.7988 51.9358 20.7588 52.1598 19.5428 52.1598ZM19.5428 49.8558C20.3321 49.8558 20.9615 49.7545 21.4308 49.5518C21.9108 49.3385 22.2575 48.9972 22.4708 48.5278C22.6948 48.0585 22.8068 47.4292 22.8068 46.6398C22.8068 45.8398 22.6948 45.2105 22.4708 44.7518C22.2575 44.2825 21.9108 43.9465 21.4308 43.7438C20.9615 43.5305 20.3321 43.4238 19.5428 43.4238C18.7641 43.4238 18.1401 43.5305 17.6708 43.7438C17.2015 43.9465 16.8601 44.2825 16.6468 44.7518C16.4335 45.2105 16.3268 45.8398 16.3268 46.6398C16.3268 47.4292 16.4335 48.0585 16.6468 48.5278C16.8601 48.9972 17.2015 49.3385 17.6708 49.5518C18.1401 49.7545 18.7641 49.8558 19.5428 49.8558ZM32.3814 51.9998H29.4214L25.7734 43.9838H28.4454L30.8454 49.6638H31.0054L33.4214 43.9838H36.0454L32.3814 51.9998ZM40.9351 52.1598C40.0497 52.1598 39.2657 52.0105 38.5831 51.7118C37.9004 51.4132 37.3724 50.9545 36.9991 50.3358C36.6257 49.7172 36.4391 48.9385 36.4391 47.9998C36.4391 47.1465 36.6257 46.4105 36.9991 45.7918C37.3724 45.1625 37.8897 44.6772 38.5511 44.3358C39.2231 43.9945 40.0017 43.8238 40.8871 43.8238C41.7617 43.8238 42.5244 43.9732 43.1751 44.2718C43.8364 44.5705 44.3484 45.0132 44.7111 45.5998C45.0737 46.1758 45.2551 46.8798 45.2551 47.7118C45.2551 47.8505 45.2497 47.9785 45.2391 48.0958C45.2284 48.2132 45.2124 48.3412 45.1911 48.4798H37.9911V47.2158H43.4951L42.9511 47.9998C42.9511 47.8932 42.9511 47.7918 42.9511 47.6958C42.9511 47.5998 42.9511 47.5038 42.9511 47.4078C42.9511 46.7998 42.7857 46.3625 42.4551 46.0958C42.1244 45.8292 41.5857 45.6958 40.8391 45.6958C40.0284 45.6958 39.4631 45.8558 39.1431 46.1758C38.8231 46.4852 38.6631 46.9812 38.6631 47.6638V48.2718C38.6631 48.9545 38.8231 49.4558 39.1431 49.7758C39.4631 50.0852 40.0337 50.2398 40.8551 50.2398C41.5591 50.2398 42.0551 50.1492 42.3431 49.9678C42.6311 49.7865 42.7751 49.5252 42.7751 49.1838V49.0238H45.1751V49.1998C45.1751 49.7758 44.9991 50.2878 44.6471 50.7358C44.2951 51.1838 43.7991 51.5358 43.1591 51.7918C42.5297 52.0372 41.7884 52.1598 40.9351 52.1598ZM48.6728 51.9998H46.2728V43.9838H48.4968V46.2718L48.6728 46.3518V51.9998ZM48.6728 47.3598H48.1928V46.1118H48.6408C48.7155 45.6745 48.8595 45.2852 49.0728 44.9438C49.2968 44.5918 49.5955 44.3198 49.9688 44.1278C50.3421 43.9252 50.7955 43.8238 51.3288 43.8238C51.9368 43.8238 52.4221 43.9518 52.7848 44.2078C53.1581 44.4532 53.4301 44.7892 53.6008 45.2158C53.7715 45.6318 53.8568 46.1012 53.8568 46.6238V47.9518H51.4568V47.1198C51.4568 46.6718 51.3555 46.3518 51.1528 46.1598C50.9608 45.9572 50.6195 45.8558 50.1288 45.8558C49.5955 45.8558 49.2168 45.9785 48.9928 46.2238C48.7795 46.4692 48.6728 46.8478 48.6728 47.3598ZM57.1259 51.9998H54.7259V41.2798H57.1259V51.9998ZM62.6382 52.1598C61.7529 52.1598 60.9689 52.0105 60.2862 51.7118C59.6035 51.4132 59.0755 50.9545 58.7022 50.3358C58.3289 49.7172 58.1422 48.9385 58.1422 47.9998C58.1422 47.1465 58.3289 46.4105 58.7022 45.7918C59.0755 45.1625 59.5929 44.6772 60.2542 44.3358C60.9262 43.9945 61.7049 43.8238 62.5902 43.8238C63.4649 43.8238 64.2275 43.9732 64.8782 44.2718C65.5395 44.5705 66.0515 45.0132 66.4142 45.5998C66.7769 46.1758 66.9582 46.8798 66.9582 47.7118C66.9582 47.8505 66.9529 47.9785 66.9422 48.0958C66.9315 48.2132 66.9155 48.3412 66.8942 48.4798H59.6942V47.2158H65.1982L64.6542 47.9998C64.6542 47.8932 64.6542 47.7918 64.6542 47.6958C64.6542 47.5998 64.6542 47.5038 64.6542 47.4078C64.6542 46.7998 64.4889 46.3625 64.1582 46.0958C63.8275 45.8292 63.2889 45.6958 62.5422 45.6958C61.7315 45.6958 61.1662 45.8558 60.8462 46.1758C60.5262 46.4852 60.3662 46.9812 60.3662 47.6638V48.2718C60.3662 48.9545 60.5262 49.4558 60.8462 49.7758C61.1662 50.0852 61.7369 50.2398 62.5582 50.2398C63.2622 50.2398 63.7582 50.1492 64.0462 49.9678C64.3342 49.7865 64.4782 49.5252 64.4782 49.1838V49.0238H66.8782V49.1998C66.8782 49.7758 66.7022 50.2878 66.3502 50.7358C65.9982 51.1838 65.5022 51.5358 64.8622 51.7918C64.2329 52.0372 63.4915 52.1598 62.6382 52.1598ZM72.4559 54.8798C71.5919 54.8798 70.8399 54.7518 70.1999 54.4958C69.5706 54.2505 69.0853 53.8932 68.7439 53.4238C68.4026 52.9545 68.2319 52.3838 68.2319 51.7118H70.6319C70.6319 51.9998 70.6799 52.2292 70.7759 52.3998C70.8826 52.5812 71.0799 52.7038 71.3679 52.7678C71.6559 52.8425 72.0719 52.8798 72.6159 52.8798C73.1279 52.8798 73.5279 52.8318 73.8159 52.7358C74.1146 52.6398 74.3226 52.4532 74.4399 52.1758C74.5573 51.9092 74.6159 51.5145 74.6159 50.9918V46.1918L74.7759 46.1438V43.9838H77.0159V50.8318C77.0159 51.7705 76.8346 52.5332 76.4719 53.1198C76.1093 53.7172 75.5866 54.1598 74.9039 54.4478C74.2319 54.7358 73.4159 54.8798 72.4559 54.8798ZM71.4959 51.1838C70.6959 51.1838 70.0186 51.0345 69.4639 50.7358C68.9093 50.4372 68.4826 50.0105 68.1839 49.4558C67.8853 48.9012 67.7359 48.2505 67.7359 47.5038C67.7359 46.7572 67.8906 46.1118 68.1999 45.5678C68.5093 45.0132 68.9519 44.5865 69.5279 44.2878C70.1039 43.9785 70.7919 43.8238 71.5919 43.8238C72.4133 43.8238 73.0959 43.9998 73.6399 44.3518C74.1839 44.7038 74.5199 45.2265 74.6479 45.9198H75.0959L74.9199 47.4078H74.6159C74.6159 47.0452 74.5306 46.7572 74.3599 46.5438C74.1893 46.3198 73.9386 46.1598 73.6079 46.0638C73.2773 45.9572 72.8613 45.9038 72.3599 45.9038C71.8479 45.9038 71.4266 45.9572 71.0959 46.0638C70.7759 46.1598 70.5359 46.3252 70.3759 46.5598C70.2266 46.7838 70.1519 47.0985 70.1519 47.5038C70.1519 47.8985 70.2266 48.2132 70.3759 48.4478C70.5359 48.6825 70.7759 48.8532 71.0959 48.9598C71.4159 49.0665 71.8266 49.1198 72.3279 49.1198C73.0959 49.1198 73.6666 49.0025 74.0399 48.7678C74.4239 48.5332 74.6159 48.1385 74.6159 47.5838H74.9199V49.1838H74.4879C74.3599 49.7812 74.0506 50.2665 73.5599 50.6398C73.0693 51.0025 72.3813 51.1838 71.4959 51.1838ZM83.9524 52.1598C83.0244 52.1598 82.2991 51.9518 81.7764 51.5358C81.2644 51.1092 80.9391 50.5438 80.8004 49.8398H80.3844V48.1118H80.6884C80.6884 48.5598 80.7791 48.9225 80.9604 49.1998C81.1418 49.4772 81.4031 49.6745 81.7444 49.7918C82.0964 49.9092 82.5231 49.9678 83.0244 49.9678C83.5471 49.9678 83.9738 49.9038 84.3044 49.7758C84.6351 49.6478 84.8804 49.4398 85.0404 49.1518C85.2004 48.8638 85.2804 48.4798 85.2804 47.9998C85.2804 47.4985 85.2004 47.1092 85.0404 46.8318C84.8804 46.5438 84.6351 46.3412 84.3044 46.2238C83.9738 46.0958 83.5524 46.0318 83.0404 46.0318C82.2618 46.0318 81.6751 46.1812 81.2804 46.4798C80.8858 46.7678 80.6884 47.2692 80.6884 47.9838H80.3844L80.2084 46.1758H80.6724C80.8111 45.4078 81.1418 44.8265 81.6644 44.4318C82.1978 44.0265 82.9338 43.8238 83.8724 43.8238C84.6938 43.8238 85.3871 43.9945 85.9524 44.3358C86.5284 44.6772 86.9658 45.1625 87.2644 45.7918C87.5631 46.4105 87.7124 47.1465 87.7124 47.9998C87.7124 48.8425 87.5631 49.5785 87.2644 50.2078C86.9764 50.8265 86.5498 51.3065 85.9844 51.6478C85.4298 51.9892 84.7524 52.1598 83.9524 52.1598ZM80.6884 54.7198H78.2884V43.9838H80.5124V46.3678L80.6884 46.5758V54.7198ZM91.1103 51.9998H88.7103V41.2798H91.1103V51.9998ZM100.463 51.9998H98.2226V50.0958L98.0946 50.0638V47.2638C98.0946 46.7412 97.9612 46.3892 97.6946 46.2078C97.4386 46.0265 96.9906 45.9358 96.3506 45.9358C95.7426 45.9358 95.3052 46.0265 95.0386 46.2078C94.7719 46.3892 94.6386 46.7092 94.6386 47.1678V47.2318H92.2226V47.1838C92.2226 46.5225 92.3986 45.9412 92.7506 45.4398C93.1026 44.9278 93.5986 44.5332 94.2386 44.2558C94.8892 43.9678 95.6519 43.8238 96.5266 43.8238C97.4226 43.8238 98.1586 43.9678 98.7346 44.2558C99.3212 44.5438 99.7532 44.9492 100.031 45.4718C100.319 45.9838 100.463 46.5918 100.463 47.2958V51.9998ZM94.8306 52.1598C93.9666 52.1598 93.2892 51.9678 92.7986 51.5838C92.3079 51.1998 92.0626 50.6772 92.0626 50.0158C92.0626 49.6105 92.1586 49.2638 92.3506 48.9758C92.5426 48.6878 92.8306 48.4585 93.2146 48.2878C93.5986 48.1065 94.0786 47.9838 94.6546 47.9198L98.2546 47.5518V48.9278L95.3106 49.2638C95.0226 49.2852 94.8092 49.3438 94.6706 49.4398C94.5426 49.5252 94.4786 49.6638 94.4786 49.8558C94.4786 50.0692 94.5639 50.2238 94.7346 50.3198C94.9052 50.4158 95.1666 50.4638 95.5186 50.4638C96.0946 50.4638 96.5692 50.4105 96.9426 50.3038C97.3159 50.1972 97.5986 50.0265 97.7906 49.7918C97.9932 49.5465 98.0946 49.2212 98.0946 48.8158L98.3186 48.7998V50.1598H98.0946C97.9132 50.7785 97.5452 51.2692 96.9906 51.6318C96.4466 51.9838 95.7266 52.1598 94.8306 52.1598ZM107.327 51.9998H105.343C104.404 51.9998 103.668 51.7705 103.135 51.3118C102.602 50.8532 102.335 50.1172 102.335 49.1038V42.4318H104.735V48.8318C104.735 49.2372 104.82 49.5092 104.991 49.6478C105.172 49.7758 105.471 49.8398 105.887 49.8398H107.327V51.9998ZM107.327 45.9678H101.071V43.9838H107.327V45.9678ZM111.266 51.9998H108.866V44.5278C108.866 43.8878 109.021 43.3278 109.33 42.8478C109.65 42.3572 110.119 41.9732 110.738 41.6958C111.367 41.4185 112.135 41.2798 113.042 41.2798H113.746V43.0238H112.658C112.039 43.0238 111.613 43.1198 111.378 43.3118C111.143 43.4932 111.106 43.8825 111.266 44.4798V44.8798V51.9998ZM113.746 45.9678H107.73V43.9838H113.746V45.9678ZM118.81 52.1598C117.904 52.1598 117.104 51.9892 116.41 51.6478C115.728 51.3065 115.194 50.8265 114.81 50.2078C114.426 49.5785 114.234 48.8425 114.234 47.9998C114.234 47.1465 114.426 46.4105 114.81 45.7918C115.194 45.1625 115.728 44.6772 116.41 44.3358C117.104 43.9945 117.904 43.8238 118.81 43.8238C119.728 43.8238 120.528 43.9945 121.21 44.3358C121.893 44.6772 122.426 45.1625 122.81 45.7918C123.194 46.4105 123.386 47.1465 123.386 47.9998C123.386 48.8425 123.194 49.5785 122.81 50.2078C122.426 50.8265 121.893 51.3065 121.21 51.6478C120.528 51.9892 119.728 52.1598 118.81 52.1598ZM118.81 50.0318C119.621 50.0318 120.186 49.8718 120.506 49.5518C120.837 49.2212 121.002 48.7038 121.002 47.9998C121.002 47.2852 120.837 46.7625 120.506 46.4318C120.186 46.1012 119.621 45.9358 118.81 45.9358C118 45.9358 117.429 46.1012 117.098 46.4318C116.778 46.7625 116.618 47.2852 116.618 47.9998C116.618 48.7038 116.778 49.2212 117.098 49.5518C117.429 49.8718 118 50.0318 118.81 50.0318ZM126.767 51.9998H124.367V43.9838H126.591V46.2718L126.767 46.3518V51.9998ZM126.767 47.3598H126.287V46.1118H126.735C126.809 45.6745 126.953 45.2852 127.167 44.9438C127.391 44.5918 127.689 44.3198 128.063 44.1278C128.436 43.9252 128.889 43.8238 129.423 43.8238C130.031 43.8238 130.516 43.9518 130.879 44.2078C131.252 44.4532 131.524 44.7892 131.695 45.2158C131.865 45.6318 131.951 46.1012 131.951 46.6238V47.9518H129.551V47.1198C129.551 46.6718 129.449 46.3518 129.247 46.1598C129.055 45.9572 128.713 45.8558 128.223 45.8558C127.689 45.8558 127.311 45.9785 127.087 46.2238C126.873 46.4692 126.767 46.8478 126.767 47.3598ZM147.444 51.9998H145.044V47.8078C145.044 47.1465 144.91 46.6772 144.644 46.3998C144.377 46.1225 143.897 45.9838 143.204 45.9838C142.478 45.9838 141.982 46.1385 141.716 46.4478C141.46 46.7572 141.332 47.2585 141.332 47.9518H141.028L140.836 46.4478H141.3C141.364 45.9892 141.502 45.5625 141.716 45.1678C141.94 44.7732 142.265 44.4532 142.692 44.2078C143.129 43.9518 143.689 43.8238 144.372 43.8238C145.065 43.8238 145.636 43.9625 146.084 44.2398C146.542 44.5172 146.884 44.8958 147.108 45.3758C147.332 45.8558 147.444 46.3998 147.444 47.0078V51.9998ZM135.22 51.9998H132.82V43.9838H135.044V46.4798L135.22 46.5598V51.9998ZM141.332 51.9998H138.932V47.8078C138.932 47.1465 138.798 46.6772 138.532 46.3998C138.265 46.1225 137.785 45.9838 137.092 45.9838C136.356 45.9838 135.86 46.1385 135.604 46.4478C135.348 46.7572 135.22 47.2585 135.22 47.9518H134.916L134.74 46.4158H135.172C135.246 45.9678 135.39 45.5518 135.604 45.1678C135.817 44.7732 136.132 44.4532 136.548 44.2078C136.964 43.9518 137.508 43.8238 138.18 43.8238C138.873 43.8238 139.438 43.9678 139.876 44.2558C140.324 44.5438 140.654 44.9278 140.868 45.4078C141.081 45.8878 141.188 46.4212 141.188 47.0078H141.332V51.9998ZM153.1 51.9998H150.412L155.1 41.2798H158.524L163.244 51.9998H160.492L157.548 45.1358L156.892 43.4718H156.716L156.06 45.1358L153.1 51.9998ZM160.524 49.6318H152.972V47.4718H160.524V49.6318ZM167.388 52.1598C166.556 52.1598 165.852 51.9892 165.276 51.6478C164.7 51.3065 164.263 50.8265 163.964 50.2078C163.665 49.5785 163.516 48.8425 163.516 47.9998C163.516 47.1465 163.66 46.4105 163.948 45.7918C164.247 45.1625 164.673 44.6772 165.228 44.3358C165.793 43.9945 166.471 43.8238 167.26 43.8238C168.209 43.8238 168.94 44.0372 169.452 44.4638C169.964 44.8905 170.284 45.4398 170.412 46.1118H170.86V47.9198H170.556C170.556 47.2265 170.353 46.7358 169.948 46.4478C169.553 46.1598 168.972 46.0158 168.204 46.0158C167.692 46.0158 167.265 46.0798 166.924 46.2078C166.593 46.3358 166.348 46.5438 166.188 46.8318C166.028 47.1092 165.948 47.4985 165.948 47.9998C165.948 48.4798 166.028 48.8638 166.188 49.1518C166.348 49.4398 166.593 49.6478 166.924 49.7758C167.265 49.9038 167.692 49.9678 168.204 49.9678C168.716 49.9678 169.143 49.9038 169.484 49.7758C169.836 49.6478 170.103 49.4452 170.284 49.1678C170.465 48.8798 170.556 48.5065 170.556 48.0478H170.86L171.02 49.7758H170.588C170.439 50.5652 170.097 51.1625 169.564 51.5678C169.031 51.9625 168.305 52.1598 167.388 52.1598ZM172.956 51.9998H170.716V49.6318L170.556 49.4238V41.2798H172.956V51.9998ZM177.154 44.0798H174.066V41.2798H177.154V44.0798ZM175.01 46.3358H174.162V44.8478H174.946C175.106 44.8478 175.223 44.8158 175.298 44.7518C175.383 44.6878 175.426 44.5545 175.426 44.3518V43.7118H177.154V44.3358C177.154 45.0078 176.967 45.5092 176.594 45.8398C176.221 46.1705 175.693 46.3358 175.01 46.3358ZM182.321 52.1598C180.977 52.1598 179.942 51.9092 179.217 51.4078C178.491 50.8958 178.129 50.1758 178.129 49.2478V49.1998H180.529V49.3438C180.529 49.7065 180.657 49.9518 180.913 50.0798C181.179 50.1972 181.654 50.2558 182.337 50.2558C182.977 50.2558 183.398 50.2025 183.601 50.0958C183.814 49.9785 183.921 49.8025 183.921 49.5678C183.921 49.3438 183.841 49.1892 183.681 49.1038C183.521 49.0078 183.206 48.9278 182.737 48.8638L180.481 48.5918C179.681 48.5065 179.062 48.2825 178.625 47.9198C178.198 47.5572 177.985 47.0345 177.985 46.3518C177.985 45.8825 178.123 45.4612 178.401 45.0878C178.678 44.7038 179.105 44.3998 179.681 44.1758C180.267 43.9412 181.019 43.8238 181.937 43.8238C182.811 43.8238 183.553 43.9358 184.161 44.1598C184.779 44.3732 185.249 44.6985 185.569 45.1358C185.889 45.5732 186.049 46.1172 186.049 46.7678V46.8158H183.649V46.7198C183.649 46.4958 183.601 46.3145 183.505 46.1758C183.419 46.0265 183.243 45.9145 182.977 45.8398C182.721 45.7652 182.347 45.7278 181.857 45.7278C181.259 45.7278 180.859 45.7865 180.657 45.9038C180.454 46.0105 180.353 46.1918 180.353 46.4478C180.353 46.6505 180.433 46.8052 180.593 46.9118C180.763 47.0078 181.11 47.0932 181.633 47.1678L183.345 47.3758C184.411 47.4932 185.169 47.7385 185.617 48.1118C186.065 48.4852 186.289 49.0025 186.289 49.6638C186.289 50.1652 186.129 50.6025 185.809 50.9758C185.489 51.3492 185.035 51.6425 184.449 51.8558C183.862 52.0585 183.153 52.1598 182.321 52.1598Z" fill="white"/>
</svg>